D:\Iztegleni\wwe.raw.16.05.2011.wmv2-spk1998.avi
   General
      Complete name : D:\Iztegleni\wwe.raw.16.05.2011.wmv2-spk1998.avi
      Format : AVI
      Format/Info : Audio Video Interleave
      File size : 411 MiB
      Duration : 1h 27mn
      Overall bit rate : 656 Kbps
   Video
      Format : WMV2
      Codec ID : WMV2
      Codec ID/Info : Windows Media Video 8
      Duration : 1h 27mn
      Bit rate : 511 Kbps
      Width : 480 pixels
      Height : 272 pixels
      Display aspect ratio : 16:9
      Frame rate : 25.000 fps
      Resolution : 24 bits
      Bits/(Pixel*Frame) : 0.157
      Stream size : 320 MiB (78%)
   Audio #1
      ID : 1
      Format : MPEG Audio
      Format version : Version 1
      Format profile : Layer 3
      Codec ID : 55
      Codec ID/Hint : MP3
      Duration : 1h 27mn
      Bit rate mode : Constant
      Bit rate : 128 Kbps
      Channel(s) : 2 channels
      Sampling rate : 48.0 KHz
      Resolution : 16 bits
      Video delay : 8ms
      Stream size : 80.2 MiB (20%)
      Alignment : Split accross interleaves
      Interleave, duration : 24 ms (0.60 video frame)